# xmcd
#
# Track frame offsets:
#	150
#	34920
#	55867
#	85170
#	105616
#	127982
#	152126
#	177646
#	203738
#	225708
#	245516
#	263531
#
# Disc length: 3756 seconds
#
# Revision: 6
# Processed by: cddbd v1.5.2PL0 Copyright (c) Steve Scherf et al.
# Submitted via: audiograbber 1.83.01
#
DISCID=9b0eaa0c
DTITLE=Within Temptation and The Metropole Orchestra - Black Symphony [CD 1)
DYEAR=2008
DGENRE=Symphonic Metal
TTITLE0=Ouverture [live]
TTITLE1=Jillian (I'd Give My Heart) [live]
TTITLE2=The Howling [live]
TTITLE3=Stand My Ground [live]
TTITLE4=The Cross [live]
TTITLE5=What Have You Done [featuring Keith Caputo] [live]
TTITLE6=Hand Of Sorrow [live]
TTITLE7=The Heart Of Everything [live]
TTITLE8=Forgiven [live]
TTITLE9=Somewhere [featuring Anneke van Giersbergen] [live]
TTITLE10=The Swan Song [live]
TTITLE11=Memories [live]
EXTD=
EXTT0=
EXTT1=
EXTT2=
EXTT3=
EXTT4=
EXTT5=
EXTT6=
EXTT7=
EXTT8=
EXTT9=
EXTT10=
EXTT11=
PLAYORDER=
